HIERARCHY
ROOT RootJoint
{
    OFFSET   0.000000   0.000000   0.000000
    CHANNELS 6 Xposition Yposition Zposition Xrotation Yrotation Zrotation
    JOINT pelvis_lowerback
    {
        OFFSET   0.000000   0.093605   0.000000
        CHANNELS 3 Xrotation Yrotation Zrotation
        JOINT lowerback_torso
        {
            OFFSET   0.000000   0.100000   0.000000
            CHANNELS 3 Xrotation Yrotation Zrotation
            JOINT torso_head
            {
                OFFSET   0.000000   0.282350   0.000000
                CHANNELS 3 Xrotation Yrotation Zrotation
                End Site
                {
                    OFFSET   0.000000   0.192650   0.000000
                }
            }
            JOINT rTorso_Clavicle
            {
                OFFSET  -0.001000   0.157500   0.000000
                CHANNELS 3 Xrotation Yrotation Zrotation
                JOINT rShoulder
                {
                    OFFSET  -0.117647   0.000000   0.000000
                    CHANNELS 3 Xrotation Yrotation Zrotation
                    JOINT rElbow
                    {
                        OFFSET  -0.245000   0.000000   0.000000
                        CHANNELS 3 Xrotation Yrotation Zrotation
                        JOINT rWrist
                        {
                            OFFSET  -0.240000   0.000000   0.000000
                            CHANNELS 3 Xrotation Yrotation Zrotation
                            End Site
                            {
                                OFFSET  -0.116353  -0.002500   0.000000
                            }
                        }
                    }
                }
            }
            JOINT lTorso_Clavicle
            {
                OFFSET   0.001000   0.157500   0.000000
                CHANNELS 3 Xrotation Yrotation Zrotation
                JOINT lShoulder
                {
                    OFFSET   0.117647   0.000000   0.000000
                    CHANNELS 3 Xrotation Yrotation Zrotation
                    JOINT lElbow
                    {
                        OFFSET   0.245000   0.000000   0.000000
                        CHANNELS 3 Xrotation Yrotation Zrotation
                        JOINT lWrist
                        {
                            OFFSET   0.240000   0.000000   0.000000
                            CHANNELS 3 Xrotation Yrotation Zrotation
                            End Site
                            {
                                OFFSET   0.116353  -0.002500   0.000000
                            }
                        }
                    }
                }
            }
        }
    }
    JOINT rHip
    {
        OFFSET  -0.100000  -0.051395   0.000000
        CHANNELS 3 Xrotation Yrotation Zrotation
        JOINT rKnee
        {
            OFFSET   0.000000  -0.410000   0.000000
            CHANNELS 3 Xrotation Yrotation Zrotation
            JOINT rAnkle
            {
                OFFSET   0.000000  -0.390000   0.000000
                CHANNELS 3 Xrotation Yrotation Zrotation
                JOINT rToeJoint
                {
                    OFFSET   0.000000  -0.050000   0.130000
                    CHANNELS 3 Xrotation Yrotation Zrotation
                    End Site
                    {
                        OFFSET  -0.010000   0.002000   0.060000
                    }
                }
            }
        }
    }
    JOINT lHip
    {
        OFFSET   0.100000  -0.051395   0.000000
        CHANNELS 3 Xrotation Yrotation Zrotation
        JOINT lKnee
        {
            OFFSET   0.000000  -0.410000   0.000000
            CHANNELS 3 Xrotation Yrotation Zrotation
            JOINT lAnkle
            {
                OFFSET   0.000000  -0.390000   0.000000
                CHANNELS 3 Xrotation Yrotation Zrotation
                JOINT lToeJoint
                {
                    OFFSET   0.000000  -0.050000   0.130000
                    CHANNELS 3 Xrotation Yrotation Zrotation
                    End Site
                    {
                        OFFSET   0.010000   0.002000   0.060000
                    }
                }
            }
        }
    }
}
MOTION
Frames: 15
Frame Time:   0.008333
 -2.376719   0.925631   3.975860   0.000000   0.000000   0.000000   0.000000   0.000000   0.000000   0.000000   0.000000   0.000000   0.000000   0.000000   0.000000   0.000000   0.000000   0.000000   0.000000   0.000000   0.000000   0.000000   0.000000   0.000000   0.000000   0.000000   0.000000   0.000000   0.000000   0.000000   0.000000   0.000000   0.000000   0.000000   0.000000   0.000000   0.000000   0.000000   0.000000   0.000000   0.000000   0.000000   0.000000   0.000000   0.000000   0.000000   0.000000   0.000000   0.000000   0.000000   0.000000   0.000000   0.000000   0.000000   0.000000   0.000000   0.000000   0.000000   0.000000   0.000000   0.000000   0.000000   0.000000
 -2.376564   0.926160   3.976136   0.411732   0.092574   0.045570  -0.566127   0.013904  -0.082015  -0.069025  -0.163308   0.052000   0.023156   0.150448  -0.055815   0.287431  -0.418125   0.435710   1.063399   0.459952   1.958078   0.012255   0.579013  -0.005739   0.456218  -0.282219  -2.675561   0.204848   0.424961  -0.267916   1.304816  -0.273999  -2.034994   0.016728  -0.832279   0.009441   0.491693   0.269127   2.358254  -0.605444   0.191003  -0.175637   0.663126   0.000759   0.001633  -0.664761  -0.125262   0.034750  -0.150858  -0.000122  -0.000209  -0.597728  -0.341501   0.014397   0.611076  -0.000334  -0.001328  -0.880057   0.148160   0.112678   0.269030  -0.000403  -0.000237
 -2.376324   0.927075   3.976784   0.800387   0.214055   0.081430  -1.176054   0.013315  -0.147478  -0.199657  -0.339120   0.120728   0.033475   0.294563  -0.116292   0.569074  -0.803157   1.588331   2.093702   0.964352   4.490198   0.028338   1.141016  -0.009292   0.945344  -0.400771  -4.626681   0.411100   0.801387  -1.216102   2.579406  -0.620182  -4.618027   0.038390  -1.639362   0.015589   1.024682   0.306839   3.987253  -1.138092   0.384512  -0.441344   1.353237   0.002030   0.003159  -1.286855  -0.242569   0.065431  -0.325593  -0.000394  -0.000469  -1.111094  -0.675938   0.093258   1.239060  -0.000950  -0.002220  -1.707309   0.284719   0.219831   0.461724  -0.000698  -0.000316
 -2.376015   0.927981   3.977691   1.169240   0.342889   0.103496  -1.808669   0.003580  -0.188960  -0.374075  -0.514572   0.205484   0.031538   0.429348  -0.175220   0.841641  -1.153192   3.173559   3.082798   1.511559   7.396014   0.043934   1.666077  -0.011139   1.414121  -0.476150  -5.748727   0.611952   1.134326  -2.582489   3.816339  -1.035367  -7.557095   0.059319  -2.396977   0.019163   1.538030   0.274848   4.834601  -1.605599   0.569295  -0.773219   2.019075   0.003486   0.004262  -1.867140  -0.353187   0.092356  -0.491509  -0.000715  -0.000671  -1.547488  -0.988726   0.230251   1.846285  -0.001681  -0.002723  -2.479822   0.411694   0.321874   0.630418  -0.000948  -0.000334
 -2.375655   0.928593   3.978759   1.519783   0.467047   0.114255  -2.447355  -0.011592  -0.207921  -0.577119  -0.685530   0.304193   0.020957   0.555316  -0.231000   1.110037  -1.477355   5.000426   4.031097   2.104738  10.550853   0.057212   2.154442  -0.011914   1.859558  -0.538488  -6.255482   0.810756   1.438674  -4.184830   5.016716  -1.520279 -10.731936   0.077060  -3.104875   0.021085   2.027321   0.217591   5.111878  -2.022571   0.744993  -1.156691   2.651971   0.004925   0.004934  -2.408886  -0.457520   0.115976  -0.648780  -0.001039  -0.000808  -1.921182  -1.281120   0.414118   2.427114  -0.002421  -0.002982  -3.201281   0.529774   0.419005   0.779671  -0.001144  -0.000329
 -2.375264   0.928701   3.979910   1.851328   0.579941   0.116701  -3.079225  -0.030289  -0.207034  -0.795548  -0.850252   0.414489   0.004785   0.673003  -0.283153   1.376989  -1.780360   6.942903   4.937781   2.745808  13.870109   0.067516   2.607893  -0.012060   2.282344  -0.596777  -6.346298   1.009419   1.722055  -5.901097   6.179608  -2.075506 -14.059733   0.090736  -3.765058   0.022006   2.492428   0.150155   5.010884  -2.399114   0.912049  -1.579789   3.250054   0.006219   0.005237  -2.914724  -0.555830   0.136698  -0.797078  -0.001337  -0.000887  -2.242878  -1.554838   0.634475   2.980333  -0.003107  -0.003093  -3.875013   0.639481   0.511343   0.912545  -0.001286  -0.000319
 -2.374856   0.928148   3.981086   2.163273   0.678004   0.113379  -3.694766  -0.051557  -0.188994  -1.019196  -1.008155   0.534319  -0.014847   0.782922  -0.331568   1.643309  -2.062985   8.918430   5.800931   3.436569  17.296783   0.074835   3.028934  -0.011871   2.684125  -0.652980  -6.168562   1.208269   1.986502  -7.650671   7.302469  -2.702087 -17.484004   0.100350  -4.380582   0.022362   2.934532   0.077330   4.672641  -2.742744   1.071008  -2.032113   3.813156   0.007298   0.005250  -3.387037  -0.648361   0.154879  -0.936152  -0.001589  -0.000915  -2.521189  -1.811307   0.882418   3.505656  -0.003701  -0.003114  -4.504120   0.741337   0.599008   1.031502  -0.001378  -0.000311
 -2.374428   0.926234   3.981836   2.401191   0.684590   0.118983  -4.063842  -0.021312  -0.106433  -1.263774  -1.165471   0.572744  -0.224950   0.806624  -0.400693   1.897622  -2.206101  10.132973   6.820636   4.254494  20.894566   0.088441   3.669526  -0.015050   3.014498  -0.746314  -4.980344   1.428767   2.268993  -8.646057   8.300066  -3.475651 -20.994511   0.108078  -5.081200   0.024004   3.308543  -0.097068   3.363026  -3.066715   1.107318  -2.441093   4.385364   0.007901   0.004182  -3.749360  -0.776116   0.356573  -0.921951  -0.001246  -0.000743  -2.622337  -1.927194   1.069278   3.457639  -0.002875  -0.002452  -4.797116   0.775967   0.810589   1.149692  -0.001515  -0.000319
 -2.374015   0.923160   3.982251   2.631340   0.694665   0.124684  -4.357180   0.005558  -0.017667  -1.472511  -1.307734   0.610271  -0.428725   0.823693  -0.470778   2.117725  -2.274571  11.122561   7.712283   5.119720  24.157165   0.095524   4.290600  -0.017554   3.358008  -0.694767  -3.789174   1.621291   2.486274  -9.412723   9.177692  -4.279863 -24.159649   0.109765  -5.751301   0.025096   3.674136  -0.377593   2.091362  -3.390205   1.132533  -2.800373   4.913997   0.007986   0.003284  -4.085195  -0.898395   0.544043  -0.894046  -0.000956  -0.000617  -2.771910  -2.034114   1.207181   3.328540  -0.002126  -0.001866  -5.073364   0.806484   1.008093   1.264645  -0.001550  -0.000311
 -2.373617   0.919025   3.982458   2.848111   0.709135   0.128147  -4.594811   0.035385   0.073921  -1.648218  -1.434544   0.653963  -0.613998   0.839233  -0.536879   2.304533  -2.296436  11.951154   8.487587   5.999111  27.125190   0.097765   4.882733  -0.019283   3.696452  -0.568672  -2.776162   1.785474   2.655321 -10.020307   9.947158  -5.091204 -27.026231   0.107390  -6.385936   0.025514   4.025243  -0.703318   1.019305  -3.693433   1.157124  -3.111760   5.401239   0.007724   0.002591  -4.398388  -1.013353   0.718466  -0.866739  -0.000733  -0.000514  -2.960196  -2.134279   1.304281   3.177692  -0.001555  -0.001391  -5.332663   0.833561   1.192291   1.368262  -0.001494  -0.000290
 -2.373194   0.919320   3.983094   2.984147   0.729754   0.262594  -4.836269   0.071322   0.067254  -1.810467  -1.544425   0.661540  -0.769572   0.853936  -0.603988   2.486201  -2.312671  12.981650   9.166426   6.860962  29.950380   0.098147   5.430181  -0.019718   4.022942  -0.473977  -1.974449   1.946301   2.820501 -10.826079  10.627221  -5.881867 -29.742481   0.104068  -6.968329   0.024715   4.361095  -0.956082   0.187787  -4.033640   1.220520  -3.303229   5.907318   0.006485   0.002258  -4.636387  -1.070049   1.046149  -0.821892  -0.000691  -0.000411  -3.190780  -2.194113   1.117772   3.368298  -0.001176  -0.001187  -5.065794   0.887746   1.306648   1.551499  -0.001312  -0.000221
 -2.372780   0.919617   3.983859   3.102500   0.769845   0.418814  -5.062135   0.105326   0.067377  -1.961521  -1.644148   0.656368  -0.922680   0.867699  -0.668577   2.653978  -2.320839  13.803394   9.756916   7.707272  32.581878   0.095806   5.953554  -0.019708   4.333784  -0.309334  -1.066168   2.096808   2.970941 -11.438840  11.226415  -6.656699 -32.270608   0.098659  -7.524179   0.023533   4.675813  -1.272838  -0.753234  -4.305246   1.276539  -3.503248   6.343008   0.005397   0.002024  -4.887839  -1.140859   1.186031  -0.773211  -0.000593  -0.000329  -3.315770  -2.273611   0.906279   3.455162  -0.000906  -0.000988  -5.142269   0.911072   1.458349   1.685097  -0.001166  -0.000199
 -2.372407   0.919848   3.984631   3.231629   0.833317   0.562394  -5.278799   0.137274   0.090383  -2.111291  -1.736124   0.659717  -1.068541   0.880545  -0.728053   2.804836  -2.321412  14.491582  10.272356   8.521250  34.984887   0.091370   6.444077  -0.019345   4.630477  -0.129013  -0.250756   2.232691   3.106036 -11.937821  11.754766  -7.401759 -34.580585   0.091749  -8.044775   0.022032   4.973285  -1.598364  -1.606584  -4.566118   1.318074  -3.687803   6.741411   0.004495   0.001859  -5.125975  -1.221447   1.310201  -0.730984  -0.000505  -0.000263  -3.424530  -2.350575   0.712285   3.489050  -0.000712  -0.000798  -5.248192   0.930863   1.602089   1.780007  -0.001013  -0.000156
 -2.372066   0.920077   3.985447   3.324379   0.910658   0.670496  -5.406865   0.156534   0.124540  -2.253857  -1.783590   0.723814  -1.218420   0.804936  -0.823031   2.899716  -2.417471  14.684272  10.688799   9.272546  36.866297   0.085771   7.035031  -0.019100   4.882346   0.246655   1.351626   2.359690   3.278665 -12.041092  12.162454  -8.207877 -36.570634   0.084270  -8.641848   0.020806   5.239607  -1.982498  -2.953458  -4.677706   1.307642  -3.830797   6.922503   0.003656   0.001555  -5.296881  -1.245891   1.371511  -0.555376  -0.000454  -0.000164  -3.402238  -2.439356   0.564196   3.337057  -0.000618  -0.000610  -5.257418   0.993481   1.732806   1.861745  -0.000874  -0.000089
 -2.371817   0.920294   3.986160   3.445338   0.999307   0.760378  -5.515177   0.175414   0.166650  -2.390073  -1.826047   0.779039  -1.356739   0.732106  -0.903972   2.958440  -2.494393  14.559506  11.062133   9.968292  38.402556   0.077237   7.588170  -0.018585   5.114687   0.650726   2.656152   2.451806   3.420788 -11.898809  12.518222  -8.963070 -38.259954   0.075082  -9.204085   0.019415   5.487179  -2.395562  -4.061140  -4.792388   1.297208  -3.948833   7.042441   0.002956   0.001307  -5.466563  -1.268192   1.425374  -0.301507  -0.000439  -0.000026  -3.390954  -2.523287   0.442863   3.139154  -0.000544  -0.000481  -5.295616   1.052130   1.855392   1.942841  -0.000762  -0.000026
